<svg version="1.2" xmlns="http://www.w3.org/2000/svg" viewBox="0 0 1080 1080" width="1080" height="1080">
	<defs>
		<clipPath clipPathUnits="userSpaceOnUse" id="cp1">
			<path d="m0 0h1080v1080h-1080z"/>
		</clipPath>
	</defs>
	<style>
		.s0 { fill: #ff8c42 } 
	</style>
	<g id="Artboard 1" clip-path="url(#cp1)">
		<path id="Zirèl" class="s0" aria-label="Zirèl"  d="m239.7 608h-89.2l120.4-159.3h89.5zm117.5 51h-206.6v-51l40-9.5h166.6zm-37.5-200.7h-163.3v-60.6h204.1v51zm140.1 200.8h-72v-180.6h72zm-36-197.4q-15.8 0-26.4-10.6-10.3-11-10.3-26.8 0-15.8 10.3-26.4 10.6-11.1 26.4-11.1 16.1 0 26.4 11.1 10.3 10.6 10.3 26.4 0 15.8-10.3 26.8-10.3 10.6-26.4 10.6zm142.3 197.4h-71.9v-180.5h71.9zm0-97.6l-33.4-29.7q14-29.4 32.3-43 18.7-13.9 46.6-13.9 12.5 0 21.3 2.9 9.2 2.9 14.7 8.5l-40.4 57.2q-2.5-2.9-7.7-4.8-4.8-2.2-11.4-2.2-11 0-16.5 6.6-5.5 6.5-5.5 18.4zm180 102q-31.5 0-55.4-11.8-23.8-12.1-37.4-33.3-13.2-21.7-13.2-49.6 0-27.5 12.8-48.8 13.2-21.3 36-33.4 22.7-12.5 51.4-12.5 28.2 0 49.9 11.8 21.6 11.4 33.7 31.9 12.5 20.6 12.5 47 0 5.5-0.7 11.7-0.4 5.9-2.2 14l-163 1.1v-44.1l136.2-1.1-33.4 19.5q0-14.7-3.7-23.9-3.3-9.5-10.2-14.3-7-4.8-17.7-4.8-11 0-19 5.6-8.1 5.5-12.5 15.7-4.1 10.3-4.1 25 0 15 4.4 25.3 4.8 9.9 13.6 15 8.8 5.2 22 5.2 12.9 0 22.4-4.1 9.9-4.4 18-13.5l36 35.6q-13.6 15.4-32.7 23.1-19.1 7.7-43.7 7.7zm37.5-238.9l-18.4 35.6-81.8-29.4 30.4-55.7zm146.6 234.4h-71.9v-268.6h71.9z"/>
	</g>
</svg>