<svg version="1.2" xmlns="http://www.w3.org/2000/svg" viewBox="1180 0 1080 1080" width="1080" height="1080">
	<defs>
		<clipPath clipPathUnits="userSpaceOnUse" id="cp1">
			<path d="m1180 0h1080v1080h-1080z"/>
		</clipPath>
	</defs>
	<style>
		.s0 { fill: #ff8c42 } 
	</style>
	<g id="Artboard 2" clip-path="url(#cp1)">
		<path id="Z" class="s0" aria-label="Z"  d="m1672.9 778.2h-265.5l358.3-474.2h266.6zm349.6 151.9h-615.1v-151.9l119.1-28.4h496zm-111.5-597.5h-486.1v-180.3h607.4v151.9z"/>
		<path id="irèl" class="s0" aria-label="irèl"  d="m1818.6 750h-31.3v-78.4h31.3zm-15.6-85.8q-6.9 0-11.5-4.6-4.5-4.8-4.5-11.6 0-6.9 4.5-11.5 4.6-4.8 11.5-4.8 7 0 11.4 4.8 4.5 4.6 4.5 11.5 0 6.8-4.5 11.6-4.4 4.6-11.4 4.6zm61.7 85.8h-31.2v-78.4h31.2zm0-42.4l-14.5-12.9q6.1-12.8 14.1-18.7 8.1-6 20.2-6 5.4 0 9.2 1.2 4 1.3 6.4 3.7l-17.5 24.9q-1.1-1.3-3.4-2.1-2.1-1-4.9-1-4.8 0-7.2 2.9-2.4 2.8-2.4 8zm78.6 44.3q-13.7 0-24.1-5.1-10.3-5.3-16.2-14.5-5.8-9.4-5.8-21.5 0-12 5.6-21.2 5.7-9.3 15.6-14.5 9.9-5.5 22.3-5.5 12.3 0 21.7 5.1 9.4 5 14.7 13.9 5.4 8.9 5.4 20.4 0 2.4-0.3 5.1-0.2 2.6-1 6.1l-70.7 0.4v-19.1l59.1-0.5-14.5 8.5q0-6.4-1.6-10.4-1.4-4.1-4.5-6.2-3-2.1-7.6-2.1-4.8 0-8.3 2.4-3.5 2.4-5.4 6.9-1.8 4.4-1.8 10.8 0 6.5 1.9 11 2.1 4.3 5.9 6.5 3.9 2.3 9.6 2.3 5.6 0 9.7-1.8 4.3-1.9 7.8-5.9l15.6 15.5q-5.9 6.7-14.1 10-8.3 3.4-19 3.4zm16.3-103.8l-8 15.5-35.6-12.8 13.3-24.2zm63.1 101.8h-31.2v-116.6h31.2z"/>
	</g>
</svg>